<svg width="16" height="17" viewBox="0 0 16 17" fill="none" xmlns="http://www.w3.org/2000/svg">
<g clip-path="url(#clip0)">
<path d="M8 0.5C3.582 0.5 0 4.082 0 8.5C0 12.918 3.582 16.5 8 16.5C12.418 16.5 16 12.918 16 8.5C16 4.082 12.418 0.5 8 0.5ZM13.1687 12.7033C12.9947 12.3127 12.6427 12.0427 11.9213 11.876C10.3927 11.5233 8.96933 11.214 9.65933 9.91267C11.756 5.95133 10.2147 3.83333 8 3.83333C5.74133 3.83333 4.23733 6.03267 6.34067 9.91267C7.05133 11.222 5.57533 11.5307 4.07867 11.876C3.356 12.0427 3.00667 12.3147 2.834 12.7067C1.89733 11.558 1.33333 10.094 1.33333 8.5C1.33333 4.824 4.324 1.83333 8 1.83333C11.676 1.83333 14.6667 4.824 14.6667 8.5C14.6667 10.0927 14.1033 11.5553 13.1687 12.7033Z" fill="#8A8A8A"/>
</g>
<defs>
<clipPath id="clip0">
<rect width="16" height="16" fill="white" transform="translate(0 0.5)"/>
</clipPath>
</defs>
</svg>
