<svg width="24" height="22" viewBox="0 0 24 22" fill="none" xmlns="http://www.w3.org/2000/svg">
<path d="M19 0C19 9.803 13.906 13.053 13.408 17H10.603C10.105 13.053 4.99999 9.803 4.99999 0H19ZM11.695 13.053C9.80899 9.793 9.05999 5.621 9.04899 2H7.34999C7.55499 6.648 9.33999 10.333 11.695 13.053ZM13.438 18H10.572C10.37 19.187 9.94199 20.619 8.00099 20.619V22H16.001V20.619C14.002 20.619 13.63 19.187 13.438 18ZM20.518 16.404C19.116 15.77 17.909 16.214 17.164 16.697C17.909 16.213 18.767 15.233 18.759 13.694C16.168 14.732 16.464 16.19 15.994 17.039C15.679 17.61 14.987 17.313 14.987 17.313L14.774 17.665C15.139 17.858 15.763 17.984 16.49 17.984C17.797 17.984 19.439 17.575 20.518 16.404ZM22.962 12.382C21.58 12.479 20.844 13.443 20.461 14.145C20.844 13.443 21.075 12.203 20.411 10.987C18.801 12.916 19.659 13.945 19.649 14.818C19.645 15.245 19.159 15.235 19.159 15.235L19.166 15.639C19.48 15.598 22.32 14.922 22.962 12.382ZM23.998 8.512C22.827 8.938 22.438 9.985 22.28 10.687C22.438 9.985 22.321 8.824 21.445 7.937C20.53 10.005 21.527 10.682 21.735 11.44C21.837 11.811 21.41 12.046 21.41 12.046L21.7 12.225C21.761 12.196 24.085 10.893 23.998 8.512ZM23.798 4.72C22.895 5.386 22.781 6.408 22.824 7.055C22.782 6.409 22.429 5.416 21.448 4.873C21.184 6.891 22.217 7.222 22.59 7.823C22.772 8.117 22.613 8.481 22.613 8.481L22.897 8.462C22.897 8.462 22.923 8.335 23.066 8.02C23.357 7.376 24.321 6.686 23.798 4.72ZM21.897 2C21.897 2 21.624 2.984 21.852 3.732C22.096 4.53 22.725 5.093 22.725 5.093C22.725 5.093 23.065 4.22 22.824 3.36C22.602 2.568 21.897 2 21.897 2ZM9.22699 17.665L9.01399 17.313C9.01399 17.313 8.32299 17.61 8.00699 17.039C7.53699 16.19 7.83299 14.732 5.24199 13.694C5.23399 15.233 6.09199 16.214 6.83699 16.697C6.09199 16.213 4.88499 15.77 3.48299 16.404C4.56099 17.575 6.20399 17.985 7.51099 17.985C8.23799 17.984 8.86099 17.858 9.22699 17.665ZM4.83399 15.638L4.84099 15.234C4.84099 15.234 4.35499 15.244 4.35099 14.817C4.34199 13.944 5.19899 12.916 3.58899 10.986C2.92499 12.202 3.15599 13.443 3.53899 14.144C3.15599 13.442 2.41899 12.478 1.03799 12.381C1.67999 14.922 4.51999 15.598 4.83399 15.638ZM2.30099 12.225L2.59099 12.046C2.59099 12.046 2.16399 11.81 2.26599 11.44C2.47399 10.682 3.47099 10.005 2.55599 7.937C1.67999 8.824 1.56199 9.985 1.72099 10.687C1.56299 9.985 1.17499 8.938 0.00298643 8.512C-0.0850136 10.893 2.23899 12.196 2.30099 12.225ZM0.934986 8.021C1.07799 8.336 1.10399 8.463 1.10399 8.463L1.38799 8.482C1.38799 8.482 1.22899 8.118 1.41099 7.824C1.78399 7.223 2.81599 6.891 2.55299 4.874C1.56999 5.416 1.21799 6.408 1.17599 7.055C1.21799 6.408 1.10399 5.385 0.201986 4.72C-0.321014 6.686 0.642986 7.376 0.934986 8.021ZM1.17599 3.36C0.935986 4.22 1.27499 5.093 1.27499 5.093C1.27499 5.093 1.90399 4.53 2.14799 3.732C2.37599 2.984 2.10299 2 2.10299 2C2.10299 2 1.39799 2.568 1.17599 3.36Z" fill="#FFAA1D"/>
</svg>
