<svg width="18" height="18" viewBox="0 0 18 18" fill="none" xmlns="http://www.w3.org/2000/svg">
<path d="M6.63 8.12625H5.15625V6.732H6.4935C7.902 6.732 7.728 8.12625 6.63 8.12625ZM10.9718 8.91975H12.9398C12.8535 7.6545 11.1698 7.56225 10.9718 8.91975ZM6.54675 9.21675H5.15625V10.677H6.52425C7.86075 10.6763 7.779 9.21675 6.54675 9.21675ZM18 9C18 13.9703 13.9703 18 9 18C4.02975 18 0 13.9703 0 9C0 4.02975 4.02975 0 9 0C13.9703 0 18 4.02975 18 9ZM7.98225 8.45025C9.23325 7.8105 9.1875 5.4645 6.792 5.42925H3.75V11.9767H6.57825C9.54675 11.9767 9.4965 9.0015 7.98225 8.45025ZM10.5 6.07575H13.5V5.4195H10.5V6.07575ZM14.2073 8.8455C13.7985 6.21675 9.6675 6.06225 9.6675 9.4995C9.6675 12.894 13.5525 12.363 14.1293 10.6695H12.7432C12.2595 11.2305 10.8623 11.0677 10.9403 9.7815H14.2477C14.2545 9.36525 14.241 9.06675 14.2073 8.8455Z" fill="white"/>
</svg>
