<svg width="18" height="18" viewBox="0 0 18 18" fill="none" xmlns="http://www.w3.org/2000/svg">
<g clip-path="url(#clip0)">
<path d="M6.49428 6.56063C6.19124 6.86655 6.34533 7.45811 6.75761 7.57174C6.83572 7.59326 7.36027 7.60586 8.01873 7.602C9.08504 7.59574 9.15254 7.59128 9.26545 7.51973C9.47572 7.38649 9.56999 7.22066 9.56999 6.98404C9.56999 6.72206 9.4696 6.55751 9.2386 6.44078C9.07874 6.36004 9.04214 6.35768 7.95382 6.35768C6.74152 6.35768 6.68797 6.3651 6.49428 6.56063Z" fill="white"/>
<path d="M6.3356 11.0714C6.36407 11.2613 6.52888 11.4755 6.70584 11.5526C6.79374 11.5909 7.27198 11.6218 8.9603 11.6021L10.8816 11.5796L11.2502 11.5196C11.609 11.3164 11.6717 10.8216 11.3741 10.5436L11.3711 10.5409C11.3426 10.5142 11.318 10.4913 11.2911 10.4715C11.1229 10.3478 10.8636 10.348 8.98408 10.3495H8.95224C6.79157 10.3512 6.71447 10.3565 6.53878 10.5155C6.39939 10.6417 6.30845 10.8904 6.3356 11.0714Z" fill="white"/>
<path fill-rule="evenodd" clip-rule="evenodd" d="M1.16115 17.5268C1.42923 17.7098 1.71988 17.8404 2.05673 17.9292C2.30383 17.9943 2.62943 17.9976 8.96906 17.9995C15.5259 18.0015 15.6263 18.0005 15.9151 17.9266C17.0441 17.6378 17.8287 16.754 17.9676 15.6146C17.9973 15.3711 18.0056 13.4166 17.9965 8.76097C17.9846 2.57048 18.0025 2.10279 17.8215 1.73232C17.7885 1.6649 17.749 1.60071 17.7015 1.50582C17.3134 0.730654 16.6427 0.217524 15.7896 0.042993C15.4744 -0.0214779 2.42298 -0.0101096 2.13082 0.0548888C1.11468 0.280952 0.326798 1.03872 0.0723675 2.03469C0.000422113 2.31632 -0.00106787 2.46042 0.000241623 9.0138C0.00155874 15.6005 0.00274841 15.7097 0.0761505 15.9841C0.148116 16.2531 0.3247 16.641 0.478324 16.8675C0.604106 17.053 0.934856 17.3723 1.16115 17.5268ZM11.5162 14.4835C12.3226 14.3735 12.9546 14.0502 13.5475 13.4445C13.9764 13.0063 14.2449 12.5321 14.4203 11.9026C14.4932 11.6411 14.4993 11.5138 14.5127 9.97845C14.5228 8.81962 14.5144 8.27693 14.4842 8.1399C14.4405 7.9413 14.3165 7.75688 14.175 7.68C14.1315 7.65634 13.8526 7.62619 13.5552 7.61299C13.057 7.59086 13.0012 7.58115 12.8439 7.48898C12.5945 7.3428 12.5258 7.18493 12.5251 6.7563C12.5238 5.93738 12.183 5.17706 11.5096 4.49089C11.0299 4.002 10.4947 3.67111 9.88395 3.4857C9.73774 3.44131 9.41033 3.42621 8.31371 3.41325C6.59303 3.39291 6.21109 3.42819 5.6253 3.66151C4.5453 4.09166 3.76931 4.99826 3.48627 6.1605C3.43311 6.37879 3.42279 6.72866 3.41023 8.73836C3.39449 11.2561 3.41185 11.6258 3.56917 12.1248C3.69915 12.537 3.83029 12.7896 4.10047 13.1482C4.61513 13.8312 5.3865 14.3245 6.15765 14.4638C6.52466 14.5301 11.0525 14.5467 11.5162 14.4835Z" fill="white"/>
</g>
<defs>
<clipPath id="clip0">
<rect width="18" height="18" fill="white"/>
</clipPath>
</defs>
</svg>
