<svg width="18" height="18" viewBox="0 0 18 18" fill="none" xmlns="http://www.w3.org/2000/svg">
<path fill-rule="evenodd" clip-rule="evenodd" d="M0 9C0 4.02945 4.02945 0 9 0C13.9705 0 18 4.02945 18 9C18 13.9705 13.9705 18 9 18C4.02945 18 0 13.9705 0 9ZM12.7106 3.9H5.58941C4.98892 3.9 4.5 4.383 4.5 4.9815V12.0795C4.5 12.678 4.98892 13.161 5.58941 13.161H11.6158L11.3342 12.1898L12.0144 12.8145L12.6574 13.4025L13.8 14.4V4.9815C13.8 4.383 13.3111 3.9 12.7106 3.9Z" fill="white"/>
<path fill-rule="evenodd" clip-rule="evenodd" d="M10.6593 10.7565C10.6593 10.7565 10.468 10.5307 10.3086 10.3312C11.0047 10.137 11.2704 9.70649 11.2704 9.70649C11.0526 9.84824 10.8453 9.94799 10.6593 10.0162C10.3936 10.1265 10.1385 10.2 9.88871 10.242C9.37856 10.3365 8.91089 10.3102 8.51231 10.2367C8.20942 10.179 7.94902 10.095 7.73111 10.011C7.60889 9.96374 7.47603 9.90599 7.34317 9.83249C7.32723 9.82199 7.31129 9.81674 7.29536 9.80624C7.28471 9.80099 7.27942 9.79574 7.27409 9.79049C7.17843 9.73799 7.12529 9.70124 7.12529 9.70124C7.12529 9.70124 7.38037 10.1212 8.05529 10.3207C7.89584 10.5202 7.69923 10.7565 7.69923 10.7565C6.52477 10.7197 6.07837 9.95849 6.07837 9.95849C6.07837 8.26799 6.84363 6.89774 6.84363 6.89774C7.60889 6.33074 8.33696 6.34649 8.33696 6.34649L8.39009 6.40949C7.43351 6.68249 6.99243 7.09724 6.99243 7.09724C6.99243 7.09724 7.10936 7.03424 7.30597 6.94499C7.87462 6.69824 8.32631 6.62999 8.51231 6.61424C8.54422 6.60899 8.57077 6.60374 8.60264 6.60374C8.92683 6.56174 9.29351 6.55124 9.67616 6.59324C10.181 6.65099 10.723 6.79799 11.2758 7.09724C11.2758 7.09724 10.8559 6.70349 9.95249 6.43049L10.0269 6.34649C10.0269 6.34649 10.755 6.33074 11.5202 6.89774C11.5202 6.89774 12.2854 8.26799 12.2854 9.95849C12.2854 9.95849 11.8338 10.7197 10.6593 10.7565ZM8.33782 8.39999C8.03729 8.39999 7.80003 8.67026 7.80003 8.99999C7.80003 9.32973 8.04254 9.59999 8.33782 9.59999C8.63834 9.59999 8.87561 9.32973 8.87561 8.99999C8.88086 8.67026 8.63834 8.39999 8.33782 8.39999ZM10.2622 8.39999C9.96172 8.39999 9.72446 8.67026 9.72446 8.99999C9.72446 9.32973 9.96701 9.59999 10.2622 9.59999C10.5628 9.59999 10.8 9.32973 10.8 8.99999C10.8 8.67026 10.5628 8.39999 10.2622 8.39999Z" fill="white"/>
</svg>
