<svg width="18" height="18" viewBox="0 0 18 18" fill="none" xmlns="http://www.w3.org/2000/svg">
<path fill-rule="evenodd" clip-rule="evenodd" d="M0 9C0 4.02945 4.02945 0 9 0C13.9705 0 18 4.02945 18 9C18 13.9705 13.9705 18 9 18C4.02945 18 0 13.9705 0 9ZM13.8 8.99336C13.8 8.6685 13.767 8.34364 13.702 8.02834C13.6388 7.71986 13.545 7.41652 13.4222 7.12747C13.3022 6.84292 13.1533 6.56861 12.9795 6.31301C12.8081 6.05884 12.6108 5.82101 12.3939 5.60359C12.1767 5.38732 11.9376 5.19097 11.6838 5.01919C11.4273 4.84575 11.1529 4.6971 10.8683 4.57635C10.5784 4.45395 10.2748 4.36009 9.96664 4.29735C9.65021 4.23278 9.3249 4.2 8.99981 4.2C8.67446 4.2 8.34915 4.23278 8.03321 4.29735C7.72451 4.36009 7.42099 4.45391 7.13126 4.57635C6.84675 4.69714 6.57203 4.84575 6.3156 5.01919C6.06176 5.19097 5.8227 5.38732 5.60588 5.60359C5.38886 5.82101 5.1915 6.05884 5.0199 6.31301C4.84695 6.56861 4.69785 6.84289 4.5774 7.12747C4.45455 7.41652 4.36058 7.71986 4.29705 8.02834C4.23281 8.34364 4.2 8.6685 4.2 8.99336C4.2 9.31796 4.23281 9.64211 4.29705 9.95813C4.36058 10.2666 4.45455 10.5694 4.57736 10.8589C4.69785 11.1433 4.84691 11.4174 5.0199 11.673C5.19146 11.9269 5.38882 12.1652 5.60588 12.3824C5.82266 12.5986 6.06176 12.7955 6.3156 12.9675C6.57199 13.1402 6.84671 13.2888 7.13126 13.4094C7.42095 13.5316 7.72451 13.6252 8.03318 13.6884C8.34911 13.7535 8.67446 13.7867 8.99977 13.7867C9.32486 13.7867 9.65021 13.7535 9.9666 13.6884C10.2748 13.6252 10.5784 13.5316 10.8683 13.4094C11.1529 13.2888 11.4273 13.1402 11.6837 12.9675C11.9376 12.7955 12.1767 12.5986 12.3939 12.3824C12.6107 12.1652 12.8081 11.9269 12.9794 11.673C13.1534 11.4174 13.3022 11.1433 13.4222 10.8589C13.545 10.5694 13.6388 10.2666 13.702 9.95813C13.767 9.64211 13.8 9.31796 13.8 8.99336Z" fill="white"/>
<path fill-rule="evenodd" clip-rule="evenodd" d="M9.88183 8.01266C11.5003 7.35263 12.1577 6.40403 12.1655 6.39304C12.7406 7.09028 13.0883 7.98083 13.0976 8.95118C13.0383 8.93903 11.651 8.64131 10.2428 8.81828C10.214 8.74808 10.1845 8.67784 10.1542 8.60621C10.0691 8.40656 9.97701 8.20789 9.88183 8.01266ZM11.2905 12.388C11.2488 12.1413 11.0303 10.9397 10.4926 9.46425C11.8157 9.25242 12.9626 9.61496 13.047 9.64211C12.8646 10.7829 12.2109 11.7678 11.2905 12.388ZM9.72456 9.65381C10.3014 11.1508 10.5395 12.4044 10.6002 12.762C10.1083 12.971 9.56751 13.0864 8.99983 13.0864C8.04917 13.0864 7.17632 12.7604 6.4804 12.2199C6.48895 12.2014 7.27877 10.5047 9.69737 9.66274C9.7063 9.65948 9.71545 9.65685 9.72456 9.65381ZM11.707 5.92121C11.6969 5.93618 11.1131 6.82369 9.56635 7.40273C8.86532 6.11734 8.09533 5.09738 8.03395 5.01499C8.34355 4.94055 8.66676 4.90031 8.99983 4.90031C10.0377 4.90031 10.9853 5.28574 11.707 5.92121ZM9.11256 8.27996C9.23001 8.5098 9.34228 8.74294 9.44518 8.97555C9.39126 8.991 9.33688 9.00694 9.28345 9.02471C7.07132 9.73902 5.94951 11.7263 5.95093 11.7285C5.29791 11.0036 4.90063 10.0449 4.90063 8.99336C4.90063 8.94934 4.90273 8.90674 4.90393 8.86275C4.97657 8.86556 7.00191 8.91094 9.11256 8.27996ZM7.25083 5.29091C7.30547 5.3637 8.06346 6.39094 8.77296 7.64966C6.80481 8.17185 5.09657 8.15029 4.98853 8.14935C5.25456 6.88174 6.10772 5.82994 7.25083 5.29091Z" fill="white"/>
</svg>
