<svg width="12" height="12" viewBox="0 0 12 12" fill="none" xmlns="http://www.w3.org/2000/svg">
<path fill-rule="evenodd" clip-rule="evenodd" d="M6 10.7965C3.185 8.027 0.5 5.648 0.5 3.5955C0.5 1.7 2.034 1 3.1405 1C3.7965 1 5.216 1.2505 6 3.2285C6.795 1.2445 8.232 1.005 8.863 1.005C10.133 1.005 11.5 1.8155 11.5 3.5955C11.5 5.63 8.932 7.908 6 10.7965ZM8.863 0.505C7.7615 0.505 6.64 1.026 6 2.124C5.3575 1.021 4.239 0.5 3.1405 0.5C1.549 0.5 0 1.5935 0 3.5955C0 5.926 2.7855 8.31 6 11.5C9.215 8.31 12 5.926 12 3.5955C12 1.59 10.4525 0.505 8.863 0.505Z" fill="#595959"/>
</svg>
