<svg width="116" height="24" viewBox="0 0 116 24" fill="none" xmlns="http://www.w3.org/2000/svg">
<path fill-rule="evenodd" clip-rule="evenodd" d="M7.26794 7.26796C6.70677 7.57779 6.17919 7.96996 5.7036 8.44554L1.04094 13.1104C1.00148 13.1498 0.962589 13.1897 0.924273 13.2298C0.879936 12.826 0.857178 12.4156 0.857178 12C0.857178 5.84597 5.846 0.857147 12 0.857147C12.415 0.857147 12.8247 0.879832 13.2279 0.924029C13.188 0.96208 13.1485 1.00069 13.1093 1.03987L9.93619 4.21296C11.3196 4.10896 12.7225 4.31696 14.0301 4.83479L15.4666 3.39829C16.0633 2.80155 16.8177 2.4563 17.5968 2.36256C19.2687 3.33557 20.6643 4.73117 21.6373 6.40303C21.5436 7.18215 21.1984 7.93653 20.6016 8.53329L15.9379 13.197C14.5176 14.6173 12.2112 14.6054 10.8029 13.197C10.4746 12.8688 10.1919 12.4604 10.0153 12.0585L7.5821 14.4905C7.83777 14.8784 8.10319 15.2131 8.44444 15.5544C9.32411 16.434 10.4443 17.0895 11.7334 17.4004C13.4039 17.8023 15.1936 17.5802 16.7309 16.732C17.292 16.4221 17.8196 16.03 18.2952 15.5544L22.9579 10.8906C22.9977 10.8508 23.037 10.8105 23.0758 10.7699C23.1201 11.1739 23.1429 11.5843 23.1429 12C23.1429 18.154 18.1541 23.1429 12 23.1429C11.5857 23.1429 11.1766 23.1202 10.7739 23.0762C10.8135 23.0384 10.8528 23 10.8917 22.9611L14.0648 19.788C12.6803 19.891 11.2784 19.684 9.97085 19.1651L8.53327 20.6027C7.93693 21.1991 7.1832 21.5442 6.40466 21.6382C4.73214 20.6652 3.33598 19.2692 2.36266 17.5969C2.45658 16.8181 2.80179 16.0642 3.39827 15.4677L8.06094 10.8029C8.56469 10.2991 9.1811 9.97521 9.83002 9.83004C11.5536 9.44437 13.2859 10.35 13.9835 11.9415L16.4167 9.50937C14.406 6.46088 10.3955 5.54437 7.26794 7.26796Z" fill="black"/>
<path d="M38.312 5.496V14.536C38.312 14.9093 38.376 15.1707 38.504 15.32C38.632 15.4693 38.8453 15.544 39.144 15.544C39.3253 15.544 39.4747 15.5333 39.592 15.512C39.7093 15.4907 39.8587 15.448 40.04 15.384L39.848 16.824C39.6667 16.9307 39.4373 17.0107 39.16 17.064C38.8933 17.128 38.6267 17.16 38.36 17.16C37.5813 17.16 37.0107 16.9733 36.648 16.6C36.296 16.216 36.12 15.608 36.12 14.776V5.496H38.312ZM42.3654 7.848C41.4587 7.848 41.0054 7.45867 41.0054 6.68C41.0054 5.89067 41.4587 5.496 42.3654 5.496C43.272 5.496 43.7254 5.89067 43.7254 6.68C43.7254 7.45867 43.272 7.848 42.3654 7.848ZM43.4534 9V17H41.2614V9H43.4534ZM45.777 17V9H47.745L47.825 10.504C48.0703 9.94933 48.4277 9.53333 48.897 9.256C49.377 8.97867 49.9263 8.84 50.545 8.84C51.377 8.84 52.065 9.08533 52.609 9.576C53.153 10.056 53.425 10.7813 53.425 11.752V17H51.233V12.376C51.233 11.6933 51.0943 11.224 50.817 10.968C50.5503 10.7013 50.209 10.568 49.793 10.568C49.4943 10.568 49.201 10.6427 48.913 10.792C48.6357 10.9307 48.4063 11.16 48.225 11.48C48.0543 11.8 47.969 12.2267 47.969 12.76V17H45.777ZM57.8753 5.496V12.648L61.3313 9H63.8273L60.8193 12.136L64.0193 17H61.5393L59.3313 13.464L57.8753 15.016V17H55.6833V5.496H57.8753ZM69.9643 6.44C71.1696 6.44 72.1189 6.744 72.8123 7.352C73.5056 7.94933 73.8523 8.78133 73.8523 9.848C73.8523 10.9253 73.5056 11.7627 72.8123 12.36C72.1189 12.9573 71.1696 13.256 69.9643 13.256H67.7403V17H65.5323V6.44H69.9643ZM69.6283 11.512C70.9509 11.512 71.6123 10.9573 71.6123 9.848C71.6123 8.73867 70.9509 8.184 69.6283 8.184H67.7403V11.512H69.6283ZM75.652 17V9H77.556L77.7 10.568C77.9027 10.024 78.2067 9.60267 78.612 9.304C79.028 8.99467 79.5507 8.84 80.18 8.84C80.5533 8.84 80.8413 8.89867 81.044 9.016L80.788 10.856C80.6813 10.824 80.548 10.7973 80.388 10.776C80.2387 10.744 80.0413 10.728 79.796 10.728C79.4653 10.728 79.1507 10.808 78.852 10.968C78.564 11.1173 78.324 11.352 78.132 11.672C77.94 11.9813 77.844 12.376 77.844 12.856V17H75.652ZM85.8938 8.84C86.6938 8.84 87.4031 9.00533 88.0218 9.336C88.6404 9.66667 89.1204 10.1413 89.4618 10.76C89.8138 11.3787 89.9898 12.1253 89.9898 13C89.9898 13.8747 89.8138 14.6213 89.4618 15.24C89.1204 15.8587 88.6404 16.3333 88.0218 16.664C87.4031 16.9947 86.6938 17.16 85.8938 17.16C85.0831 17.16 84.3684 16.9947 83.7498 16.664C83.1418 16.3333 82.6618 15.8587 82.3098 15.24C81.9684 14.6213 81.7978 13.8747 81.7978 13C81.7978 12.1253 81.9684 11.3787 82.3098 10.76C82.6618 10.1413 83.1418 9.66667 83.7498 9.336C84.3684 9.00533 85.0831 8.84 85.8938 8.84ZM85.8938 10.472C85.2964 10.472 84.8271 10.6853 84.4858 11.112C84.1551 11.528 83.9898 12.1573 83.9898 13C83.9898 13.8427 84.1551 14.4773 84.4858 14.904C84.8271 15.32 85.2964 15.528 85.8938 15.528C86.4804 15.528 86.9391 15.32 87.2698 14.904C87.6111 14.4773 87.7818 13.8427 87.7818 13C87.7818 12.1573 87.6111 11.528 87.2698 11.112C86.9391 10.6853 86.4804 10.472 85.8938 10.472ZM96.9301 9V10.632H94.4981V17H92.3061V10.632H90.9141V9H92.3061V8.04C92.3061 7.13333 92.5888 6.456 93.1541 6.008C93.7195 5.56 94.4341 5.336 95.2981 5.336C95.6715 5.336 96.0075 5.37867 96.3061 5.464C96.6048 5.53867 96.8341 5.63467 96.9941 5.752L96.6901 7.208C96.5728 7.13333 96.4395 7.07467 96.2901 7.032C96.1408 6.98933 95.9648 6.968 95.7621 6.968C95.3461 6.968 95.0155 7.064 94.7701 7.256C94.5248 7.43733 94.4021 7.752 94.4021 8.2V9H96.9301ZM99.3461 7.848C98.4395 7.848 97.9861 7.45867 97.9861 6.68C97.9861 5.89067 98.4395 5.496 99.3461 5.496C100.253 5.496 100.706 5.89067 100.706 6.68C100.706 7.45867 100.253 7.848 99.3461 7.848ZM100.434 9V17H98.2421V9H100.434ZM104.921 5.496V14.536C104.921 14.9093 104.985 15.1707 105.113 15.32C105.241 15.4693 105.455 15.544 105.753 15.544C105.935 15.544 106.084 15.5333 106.201 15.512C106.319 15.4907 106.468 15.448 106.649 15.384L106.457 16.824C106.276 16.9307 106.047 17.0107 105.769 17.064C105.503 17.128 105.236 17.16 104.969 17.16C104.191 17.16 103.62 16.9733 103.257 16.6C102.905 16.216 102.729 15.608 102.729 14.776V5.496H104.921ZM111.583 17.16C110.324 17.16 109.316 16.7973 108.559 16.072C107.801 15.336 107.423 14.312 107.423 13C107.423 12.1253 107.593 11.3787 107.935 10.76C108.276 10.1413 108.751 9.66667 109.359 9.336C109.977 9.00533 110.681 8.84 111.471 8.84C112.281 8.84 112.969 9.00533 113.535 9.336C114.1 9.656 114.532 10.0987 114.831 10.664C115.129 11.2187 115.279 11.8533 115.279 12.568C115.279 12.7813 115.273 12.984 115.263 13.176C115.252 13.368 115.236 13.5387 115.215 13.688H109.567C109.652 14.3067 109.865 14.7707 110.207 15.08C110.559 15.3787 111.012 15.528 111.567 15.528C112.036 15.528 112.415 15.4373 112.703 15.256C112.991 15.0747 113.215 14.824 113.375 14.504L115.119 15.176C114.863 15.8053 114.415 16.296 113.775 16.648C113.135 16.9893 112.404 17.16 111.583 17.16ZM111.455 10.456C110.42 10.456 109.796 11.0267 109.583 12.168H113.183C113.119 11.6133 112.937 11.192 112.639 10.904C112.351 10.6053 111.956 10.456 111.455 10.456Z" fill="black"/>
</svg>
